<svg xmlns="http://www.w3.org/2000/svg" width="1920" height="1080"><path d="M127,-262L276,-256L580,-257Z" fill="#ececec" stroke="#ececec" stroke-width="1.51"/><path d="M471,1283L-18,1302L689,1309Z" fill="#6b6b6b" stroke="#6b6b6b" stroke-width="1.51"/><path d="M-18,1302L-141,1315L689,1309Z" fill="#717171" stroke="#717171" stroke-width="1.51"/><path d="M689,1309L-141,1315L1137,1325Z" fill="#626262" stroke="#626262" stroke-width="1.51"/><path d="M1453,1291L1137,1325L1668,1287Z" fill="#373737" stroke="#373737" stroke-width="1.51"/><path d="M1030,-227L1298,-211L1944,-253Z" fill="#ababab" stroke="#ababab" stroke-width="1.51"/><path d="M580,-257L1030,-227L1944,-253Z" fill="#bababa" stroke="#bababa" stroke-width="1.51"/><path d="M1447,-184L1679,-155L1944,-253Z" fill="#969696" stroke="#969696" stroke-width="1.51"/><path d="M1298,-211L1447,-184L1944,-253Z" fill="#a2a2a2" stroke="#a2a2a2" stroke-width="1.51"/><path d="M1668,1287L1137,1325L2064,1268Z" fill="#2c2c2c" stroke="#2c2c2c" stroke-width="1.51"/><path d="M1918,1249L1786,1268L2064,1268Z" fill="#1a1a1a" stroke="#1a1a1a" stroke-width="1.51"/><path d="M1786,1268L1668,1287L2064,1268Z" fill="#1e1e1e" stroke="#1e1e1e" stroke-width="1.51"/><path d="M2056,1040L2036,1120L2064,1268Z" fill="#1d1d1d" stroke="#1d1d1d" stroke-width="1.51"/><path d="M1983,187L2030,233L2081,70Z" fill="#6c6c6c" stroke="#6c6c6c" stroke-width="1.51"/><path d="M2030,233L2075,408L2081,70Z" fill="#666666" stroke="#666666" stroke-width="1.51"/><path d="M1935,668L1905,896L2103,701Z" fill="#434343" stroke="#434343" stroke-width="1.51"/><path d="M2075,408L2067,531L2103,701Z" fill="#4d4d4d" stroke="#4d4d4d" stroke-width="1.51"/><path d="M580,-257L1944,-253L2117,-260Z" fill="#a4a4a4" stroke="#a4a4a4" stroke-width="1.51"/><path d="M127,-262L580,-257L2117,-260Z" fill="#c9c9c9" stroke="#c9c9c9" stroke-width="1.51"/><path d="M2103,701L1905,896L2121,874Z" fill="#3a3a3a" stroke="#3a3a3a" stroke-width="1.51"/><path d="M1962,971L2056,1040L2121,874Z" fill="#303030" stroke="#303030" stroke-width="1.51"/><path d="M2056,1040L2064,1268L2121,874Z" fill="#242424" stroke="#242424" stroke-width="1.51"/><path d="M2075,408L2103,701L2135,-112Z" fill="#5d5d5d" stroke="#5d5d5d" stroke-width="1.51"/><path d="M2081,70L2075,408L2135,-112Z" fill="#6b6b6b" stroke="#6b6b6b" stroke-width="1.51"/><path d="M1901,-78L2081,70L2135,-112Z" fill="#767676" stroke="#767676" stroke-width="1.51"/><path d="M2117,-260L1944,-253L2135,-112Z" fill="#7a7a7a" stroke="#7a7a7a" stroke-width="1.51"/><path d="M1944,-253L1901,-78L2135,-112Z" fill="#7d7d7d" stroke="#7d7d7d" stroke-width="1.51"/><path d="M2103,701L2121,874L2135,-112Z" fill="#505050" stroke="#505050" stroke-width="1.51"/><path d="M2067,531L1935,668L2103,701Z" fill="#494949" stroke="#494949" stroke-width="1.51"/><path d="M1905,896L1962,971L2121,874Z" fill="#363636" stroke="#363636" stroke-width="1.51"/><path d="M2030,233L1893,365L2075,408Z" fill="#646464" stroke="#646464" stroke-width="1.51"/><path d="M2036,1120L1940,1133L2064,1268Z" fill="#1c1c1c" stroke="#1c1c1c" stroke-width="1.51"/><path d="M1940,1133L1918,1249L2064,1268Z" fill="#1b1b1b" stroke="#1b1b1b" stroke-width="1.51"/><path d="M1898,489L2067,531L2075,408Z" fill="#575757" stroke="#575757" stroke-width="1.51"/><path d="M1880,126L1983,187L2081,70Z" fill="#717171" stroke="#717171" stroke-width="1.51"/><path d="M1901,-78L1880,126L2081,70Z" fill="#787878" stroke="#787878" stroke-width="1.51"/><path d="M1893,365L1898,489L2075,408Z" fill="#5e5e5e" stroke="#5e5e5e" stroke-width="1.51"/><path d="M1898,489L1935,668L2067,531Z" fill="#525252" stroke="#525252" stroke-width="1.51"/><path d="M1940,1133L2036,1120L2056,1040Z" fill="#242424" stroke="#242424" stroke-width="1.51"/><path d="M1962,971L1940,1133L2056,1040Z" fill="#2a2a2a" stroke="#2a2a2a" stroke-width="1.51"/><path d="M1983,187L1893,365L2030,233Z" fill="#6a6a6a" stroke="#6a6a6a" stroke-width="1.51"/><path d="M1898,489L1816,646L1935,668Z" fill="#545454" stroke="#545454" stroke-width="1.51"/><path d="M1829,860L1905,896L1935,668Z" fill="#444444" stroke="#444444" stroke-width="1.51"/><path d="M1822,-155L1901,-78L1944,-253Z" fill="#848484" stroke="#848484" stroke-width="1.51"/><path d="M1778,1005L1940,1133L1962,971Z" fill="#303030" stroke="#303030" stroke-width="1.51"/><path d="M1813,207L1893,365L1983,187Z" fill="#6f6f6f" stroke="#6f6f6f" stroke-width="1.51"/><path d="M1880,126L1813,207L1983,187Z" fill="#747474" stroke="#747474" stroke-width="1.51"/><path d="M1759,-20L1880,126L1901,-78Z" fill="#808080" stroke="#808080" stroke-width="1.51"/><path d="M1816,646L1829,860L1935,668Z" fill="#4c4c4c" stroke="#4c4c4c" stroke-width="1.51"/><path d="M1679,-155L1822,-155L1944,-253Z" fill="#8a8a8a" stroke="#8a8a8a" stroke-width="1.51"/><path d="M1905,896L1778,1005L1962,971Z" fill="#393939" stroke="#393939" stroke-width="1.51"/><path d="M1893,365L1835,389L1898,489Z" fill="#646464" stroke="#646464" stroke-width="1.51"/><path d="M1786,1268L1918,1249L1940,1133Z" fill="#202020" stroke="#202020" stroke-width="1.51"/><path d="M1729,1128L1786,1268L1940,1133Z" fill="#262626" stroke="#262626" stroke-width="1.51"/><path d="M1778,1005L1729,1128L1940,1133Z" fill="#2f2f2f" stroke="#2f2f2f" stroke-width="1.51"/><path d="M1813,207L1835,389L1893,365Z" fill="#6e6e6e" stroke="#6e6e6e" stroke-width="1.51"/><path d="M1742,496L1816,646L1898,489Z" fill="#5d5d5d" stroke="#5d5d5d" stroke-width="1.51"/><path d="M1829,860L1778,1005L1905,896Z" fill="#3f3f3f" stroke="#3f3f3f" stroke-width="1.51"/><path d="M1759,-20L1744,127L1880,126Z" fill="#818181" stroke="#818181" stroke-width="1.51"/><path d="M1822,-155L1759,-20L1901,-78Z" fill="#868686" stroke="#868686" stroke-width="1.51"/><path d="M1835,389L1742,496L1898,489Z" fill="#646464" stroke="#646464" stroke-width="1.51"/><path d="M1816,646L1662,669L1829,860Z" fill="#535353" stroke="#535353" stroke-width="1.51"/><path d="M1744,127L1813,207L1880,126Z" fill="#7b7b7b" stroke="#7b7b7b" stroke-width="1.51"/><path d="M1690,43L1744,127L1759,-20Z" fill="#888888" stroke="#888888" stroke-width="1.51"/><path d="M1679,-155L1759,-20L1822,-155Z" fill="#8d8d8d" stroke="#8d8d8d" stroke-width="1.51"/><path d="M1649,885L1778,1005L1829,860Z" fill="#464646" stroke="#464646" stroke-width="1.51"/><path d="M1662,669L1649,885L1829,860Z" fill="#515151" stroke="#515151" stroke-width="1.51"/><path d="M1661,442L1742,496L1835,389Z" fill="#6c6c6c" stroke="#6c6c6c" stroke-width="1.51"/><path d="M1813,207L1598,237L1835,389Z" fill="#797979" stroke="#797979" stroke-width="1.51"/><path d="M1598,237L1661,442L1835,389Z" fill="#787878" stroke="#787878" stroke-width="1.51"/><path d="M1742,496L1662,669L1816,646Z" fill="#5f5f5f" stroke="#5f5f5f" stroke-width="1.51"/><path d="M1744,127L1598,237L1813,207Z" fill="#818181" stroke="#818181" stroke-width="1.51"/><path d="M1661,1036L1729,1128L1778,1005Z" fill="#3a3a3a" stroke="#3a3a3a" stroke-width="1.51"/><path d="M1649,885L1661,1036L1778,1005Z" fill="#454545" stroke="#454545" stroke-width="1.51"/><path d="M1729,1128L1669,1154L1786,1268Z" fill="#2c2c2c" stroke="#2c2c2c" stroke-width="1.51"/><path d="M1669,1154L1668,1287L1786,1268Z" fill="#2a2a2a" stroke="#2a2a2a" stroke-width="1.51"/><path d="M1599,509L1662,669L1742,496Z" fill="#696969" stroke="#696969" stroke-width="1.51"/><path d="M1624,-22L1690,43L1759,-20Z" fill="#8e8e8e" stroke="#8e8e8e" stroke-width="1.51"/><path d="M1679,-155L1624,-22L1759,-20Z" fill="#919191" stroke="#919191" stroke-width="1.51"/><path d="M1661,442L1599,509L1742,496Z" fill="#6f6f6f" stroke="#6f6f6f" stroke-width="1.51"/><path d="M1690,43L1598,237L1744,127Z" fill="#888888" stroke="#888888" stroke-width="1.51"/><path d="M1661,1036L1669,1154L1729,1128Z" fill="#373737" stroke="#373737" stroke-width="1.51"/><path d="M1598,237L1498,433L1661,442Z" fill="#808080" stroke="#808080" stroke-width="1.51"/><path d="M1482,831L1649,885L1662,669Z" fill="#5b5b5b" stroke="#5b5b5b" stroke-width="1.51"/><path d="M1474,731L1482,831L1662,669Z" fill="#636363" stroke="#636363" stroke-width="1.51"/><path d="M1624,-22L1459,76L1690,43Z" fill="#959595" stroke="#959595" stroke-width="1.51"/><path d="M1459,76L1598,237L1690,43Z" fill="#919191" stroke="#919191" stroke-width="1.51"/><path d="M1649,885L1477,1045L1661,1036Z" fill="#4b4b4b" stroke="#4b4b4b" stroke-width="1.51"/><path d="M1485,1144L1668,1287L1669,1154Z" fill="#353535" stroke="#353535" stroke-width="1.51"/><path d="M1661,1036L1485,1144L1669,1154Z" fill="#3d3d3d" stroke="#3d3d3d" stroke-width="1.51"/><path d="M1447,-184L1624,-22L1679,-155Z" fill="#9c9c9c" stroke="#9c9c9c" stroke-width="1.51"/><path d="M1447,-184L1438,-73L1624,-22Z" fill="#a1a1a1" stroke="#a1a1a1" stroke-width="1.51"/><path d="M1477,1045L1485,1144L1661,1036Z" fill="#454545" stroke="#454545" stroke-width="1.51"/><path d="M1599,509L1481,537L1662,669Z" fill="#6f6f6f" stroke="#6f6f6f" stroke-width="1.51"/><path d="M1485,1144L1453,1291L1668,1287Z" fill="#363636" stroke="#363636" stroke-width="1.51"/><path d="M1498,433L1599,509L1661,442Z" fill="#787878" stroke="#787878" stroke-width="1.51"/><path d="M1481,537L1474,731L1662,669Z" fill="#6c6c6c" stroke="#6c6c6c" stroke-width="1.51"/><path d="M1482,831L1477,1045L1649,885Z" fill="#565656" stroke="#565656" stroke-width="1.51"/><path d="M1478,251L1498,433L1598,237Z" fill="#8a8a8a" stroke="#8a8a8a" stroke-width="1.51"/><path d="M1459,76L1478,251L1598,237Z" fill="#929292" stroke="#929292" stroke-width="1.51"/><path d="M1438,-73L1459,76L1624,-22Z" fill="#9d9d9d" stroke="#9d9d9d" stroke-width="1.51"/><path d="M1498,433L1481,537L1599,509Z" fill="#7a7a7a" stroke="#7a7a7a" stroke-width="1.51"/><path d="M1299,1234L1137,1325L1453,1291Z" fill="#3e3e3e" stroke="#3e3e3e" stroke-width="1.51"/><path d="M1336,540L1297,686L1474,731Z" fill="#757575" stroke="#757575" stroke-width="1.51"/><path d="M1368,803L1293,1028L1477,1045Z" fill="#5b5b5b" stroke="#5b5b5b" stroke-width="1.51"/><path d="M1459,76L1364,76L1478,251Z" fill="#9a9a9a" stroke="#9a9a9a" stroke-width="1.51"/><path d="M1364,76L1350,290L1478,251Z" fill="#979797" stroke="#979797" stroke-width="1.51"/><path d="M1336,540L1474,731L1481,537Z" fill="#757575" stroke="#757575" stroke-width="1.51"/><path d="M1368,803L1477,1045L1482,831Z" fill="#5d5d5d" stroke="#5d5d5d" stroke-width="1.51"/><path d="M1474,731L1368,803L1482,831Z" fill="#656565" stroke="#656565" stroke-width="1.51"/><path d="M1330,1152L1453,1291L1485,1144Z" fill="#3f3f3f" stroke="#3f3f3f" stroke-width="1.51"/><path d="M1350,290L1283,352L1498,433Z" fill="#8e8e8e" stroke="#8e8e8e" stroke-width="1.51"/><path d="M1336,540L1481,537L1498,433Z" fill="#7d7d7d" stroke="#7d7d7d" stroke-width="1.51"/><path d="M1283,352L1336,540L1498,433Z" fill="#868686" stroke="#868686" stroke-width="1.51"/><path d="M1478,251L1350,290L1498,433Z" fill="#8d8d8d" stroke="#8d8d8d" stroke-width="1.51"/><path d="M1438,-73L1364,76L1459,76Z" fill="#a0a0a0" stroke="#a0a0a0" stroke-width="1.51"/><path d="M1477,1045L1330,1152L1485,1144Z" fill="#464646" stroke="#464646" stroke-width="1.51"/><path d="M1330,1152L1299,1234L1453,1291Z" fill="#404040" stroke="#404040" stroke-width="1.51"/><path d="M1293,1028L1330,1152L1477,1045Z" fill="#4e4e4e" stroke="#4e4e4e" stroke-width="1.51"/><path d="M1297,686L1368,803L1474,731Z" fill="#6d6d6d" stroke="#6d6d6d" stroke-width="1.51"/><path d="M1292,-87L1438,-73L1447,-184Z" fill="#a9a9a9" stroke="#a9a9a9" stroke-width="1.51"/><path d="M1292,-87L1364,76L1438,-73Z" fill="#a6a6a6" stroke="#a6a6a6" stroke-width="1.51"/><path d="M1298,-211L1292,-87L1447,-184Z" fill="#adadad" stroke="#adadad" stroke-width="1.51"/><path d="M910,1263L689,1309L1137,1325Z" fill="#515151" stroke="#515151" stroke-width="1.51"/><path d="M1283,352L1177,402L1336,540Z" fill="#8d8d8d" stroke="#8d8d8d" stroke-width="1.51"/><path d="M1292,-87L1171,-22L1364,76Z" fill="#ababab" stroke="#ababab" stroke-width="1.51"/><path d="M1171,-22L1192,122L1364,76Z" fill="#a9a9a9" stroke="#a9a9a9" stroke-width="1.51"/><path d="M1201,248L1350,290L1364,76Z" fill="#9d9d9d" stroke="#9d9d9d" stroke-width="1.51"/><path d="M1192,122L1201,248L1364,76Z" fill="#a4a4a4" stroke="#a4a4a4" stroke-width="1.51"/><path d="M1297,686L1199,881L1368,803Z" fill="#6e6e6e" stroke="#6e6e6e" stroke-width="1.51"/><path d="M1199,881L1293,1028L1368,803Z" fill="#656565" stroke="#656565" stroke-width="1.51"/><path d="M1194,691L1199,881L1297,686Z" fill="#747474" stroke="#747474" stroke-width="1.51"/><path d="M1154,592L1297,686L1336,540Z" fill="#7f7f7f" stroke="#7f7f7f" stroke-width="1.51"/><path d="M1201,248L1283,352L1350,290Z" fill="#999999" stroke="#999999" stroke-width="1.51"/><path d="M580,-257L712,-203L1030,-227Z" fill="#d4d4d4" stroke="#d4d4d4" stroke-width="1.51"/><path d="M1030,-227L1164,-158L1298,-211Z" fill="#bababa" stroke="#bababa" stroke-width="1.51"/><path d="M1293,1028L1179,1133L1330,1152Z" fill="#505050" stroke="#505050" stroke-width="1.51"/><path d="M1177,402L1154,592L1336,540Z" fill="#898989" stroke="#898989" stroke-width="1.51"/><path d="M1154,592L1194,691L1297,686Z" fill="#7d7d7d" stroke="#7d7d7d" stroke-width="1.51"/><path d="M1179,1133L1299,1234L1330,1152Z" fill="#494949" stroke="#494949" stroke-width="1.51"/><path d="M1199,881L1151,1011L1293,1028Z" fill="#626262" stroke="#626262" stroke-width="1.51"/><path d="M1151,1011L1179,1133L1293,1028Z" fill="#595959" stroke="#595959" stroke-width="1.51"/><path d="M1164,-158L1292,-87L1298,-211Z" fill="#b2b2b2" stroke="#b2b2b2" stroke-width="1.51"/><path d="M1179,1133L1137,1325L1299,1234Z" fill="#474747" stroke="#474747" stroke-width="1.51"/><path d="M1164,-158L1171,-22L1292,-87Z" fill="#b3b3b3" stroke="#b3b3b3" stroke-width="1.51"/><path d="M1201,248L1177,402L1283,352Z" fill="#9a9a9a" stroke="#9a9a9a" stroke-width="1.51"/><path d="M1164,-158L1084,-91L1171,-22Z" fill="#b7b7b7" stroke="#b7b7b7" stroke-width="1.51"/><path d="M1016,485L1154,592L1177,402Z" fill="#919191" stroke="#919191" stroke-width="1.51"/><path d="M1039,1235L1137,1325L1179,1133Z" fill="#4c4c4c" stroke="#4c4c4c" stroke-width="1.51"/><path d="M1171,-22L1074,86L1192,122Z" fill="#afafaf" stroke="#afafaf" stroke-width="1.51"/><path d="M1074,86L1069,285L1192,122Z" fill="#ababab" stroke="#ababab" stroke-width="1.51"/><path d="M1086,1009L1151,1011L1199,881Z" fill="#676767" stroke="#676767" stroke-width="1.51"/><path d="M1194,691L1031,691L1199,881Z" fill="#797979" stroke="#797979" stroke-width="1.51"/><path d="M1031,691L998,844L1199,881Z" fill="#787878" stroke="#787878" stroke-width="1.51"/><path d="M1192,122L1069,285L1201,248Z" fill="#a5a5a5" stroke="#a5a5a5" stroke-width="1.51"/><path d="M1069,285L1177,402L1201,248Z" fill="#9f9f9f" stroke="#9f9f9f" stroke-width="1.51"/><path d="M998,844L1086,1009L1199,881Z" fill="#6f6f6f" stroke="#6f6f6f" stroke-width="1.51"/><path d="M1151,1011L1086,1009L1179,1133Z" fill="#5d5d5d" stroke="#5d5d5d" stroke-width="1.51"/><path d="M1086,1009L1034,1098L1179,1133Z" fill="#5c5c5c" stroke="#5c5c5c" stroke-width="1.51"/><path d="M1154,592L1031,691L1194,691Z" fill="#828282" stroke="#828282" stroke-width="1.51"/><path d="M244,1259L-18,1302L471,1283Z" fill="#727272" stroke="#727272" stroke-width="1.51"/><path d="M712,-203L860,-174L1030,-227Z" fill="#cdcdcd" stroke="#cdcdcd" stroke-width="1.51"/><path d="M1034,1098L1039,1235L1179,1133Z" fill="#545454" stroke="#545454" stroke-width="1.51"/><path d="M1069,285L980,339L1177,402Z" fill="#a1a1a1" stroke="#a1a1a1" stroke-width="1.51"/><path d="M980,339L1016,485L1177,402Z" fill="#9c9c9c" stroke="#9c9c9c" stroke-width="1.51"/><path d="M1084,-91L1074,86L1171,-22Z" fill="#b5b5b5" stroke="#b5b5b5" stroke-width="1.51"/><path d="M1030,-227L1084,-91L1164,-158Z" fill="#bcbcbc" stroke="#bcbcbc" stroke-width="1.51"/><path d="M1016,485L1031,691L1154,592Z" fill="#8b8b8b" stroke="#8b8b8b" stroke-width="1.51"/><path d="M1039,1235L910,1263L1137,1325Z" fill="#4d4d4d" stroke="#4d4d4d" stroke-width="1.51"/><path d="M1016,485L898,679L1031,691Z" fill="#8e8e8e" stroke="#8e8e8e" stroke-width="1.51"/><path d="M893,288L1069,285L1074,86Z" fill="#aeaeae" stroke="#aeaeae" stroke-width="1.51"/><path d="M892,75L893,288L1074,86Z" fill="#b6b6b6" stroke="#b6b6b6" stroke-width="1.51"/><path d="M903,-50L892,75L1074,86Z" fill="#bcbcbc" stroke="#bcbcbc" stroke-width="1.51"/><path d="M903,-50L1074,86L1084,-91Z" fill="#bbbbbb" stroke="#bbbbbb" stroke-width="1.51"/><path d="M1030,-227L903,-50L1084,-91Z" fill="#c1c1c1" stroke="#c1c1c1" stroke-width="1.51"/><path d="M899,996L1034,1098L1086,1009Z" fill="#666666" stroke="#666666" stroke-width="1.51"/><path d="M998,844L899,996L1086,1009Z" fill="#717171" stroke="#717171" stroke-width="1.51"/><path d="M980,339L933,424L1016,485Z" fill="#a0a0a0" stroke="#a0a0a0" stroke-width="1.51"/><path d="M893,288L980,339L1069,285Z" fill="#aaaaaa" stroke="#aaaaaa" stroke-width="1.51"/><path d="M860,-174L903,-50L1030,-227Z" fill="#c7c7c7" stroke="#c7c7c7" stroke-width="1.51"/><path d="M852,502L898,679L1016,485Z" fill="#979797" stroke="#979797" stroke-width="1.51"/><path d="M875,804L998,844L1031,691Z" fill="#818181" stroke="#818181" stroke-width="1.51"/><path d="M898,679L875,804L1031,691Z" fill="#888888" stroke="#888888" stroke-width="1.51"/><path d="M1034,1098L875,1120L1039,1235Z" fill="#5a5a5a" stroke="#5a5a5a" stroke-width="1.51"/><path d="M875,1120L910,1263L1039,1235Z" fill="#575757" stroke="#575757" stroke-width="1.51"/><path d="M899,996L875,1120L1034,1098Z" fill="#666666" stroke="#666666" stroke-width="1.51"/><path d="M933,424L852,502L1016,485Z" fill="#9e9e9e" stroke="#9e9e9e" stroke-width="1.51"/><path d="M875,804L899,996L998,844Z" fill="#7b7b7b" stroke="#7b7b7b" stroke-width="1.51"/><path d="M892,75L775,207L893,288Z" fill="#bababa" stroke="#bababa" stroke-width="1.51"/><path d="M893,288L933,424L980,339Z" fill="#a9a9a9" stroke="#a9a9a9" stroke-width="1.51"/><path d="M693,380L852,502L893,288Z" fill="#adadad" stroke="#adadad" stroke-width="1.51"/><path d="M875,804L770,882L899,996Z" fill="#7f7f7f" stroke="#7f7f7f" stroke-width="1.51"/><path d="M893,288L852,502L933,424Z" fill="#a7a7a7" stroke="#a7a7a7" stroke-width="1.51"/><path d="M748,-113L689,83L892,75Z" fill="#c9c9c9" stroke="#c9c9c9" stroke-width="1.51"/><path d="M852,502L698,673L898,679Z" fill="#999999" stroke="#999999" stroke-width="1.51"/><path d="M741,1112L875,1120L899,996Z" fill="#6b6b6b" stroke="#6b6b6b" stroke-width="1.51"/><path d="M748,-113L892,75L903,-50Z" fill="#c6c6c6" stroke="#c6c6c6" stroke-width="1.51"/><path d="M860,-174L748,-113L903,-50Z" fill="#cbcbcb" stroke="#cbcbcb" stroke-width="1.51"/><path d="M875,1120L741,1112L910,1263Z" fill="#616161" stroke="#616161" stroke-width="1.51"/><path d="M741,1112L689,1309L910,1263Z" fill="#5f5f5f" stroke="#5f5f5f" stroke-width="1.51"/><path d="M698,673L875,804L898,679Z" fill="#909090" stroke="#909090" stroke-width="1.51"/><path d="M697,1020L741,1112L899,996Z" fill="#737373" stroke="#737373" stroke-width="1.51"/><path d="M770,882L697,1020L899,996Z" fill="#7c7c7c" stroke="#7c7c7c" stroke-width="1.51"/><path d="M682,537L698,673L852,502Z" fill="#a1a1a1" stroke="#a1a1a1" stroke-width="1.51"/><path d="M689,83L775,207L892,75Z" fill="#c3c3c3" stroke="#c3c3c3" stroke-width="1.51"/><path d="M775,207L693,380L893,288Z" fill="#b7b7b7" stroke="#b7b7b7" stroke-width="1.51"/><path d="M698,673L770,882L875,804Z" fill="#8c8c8c" stroke="#8c8c8c" stroke-width="1.51"/><path d="M712,-203L748,-113L860,-174Z" fill="#d1d1d1" stroke="#d1d1d1" stroke-width="1.51"/><path d="M693,380L682,537L852,502Z" fill="#aaaaaa" stroke="#aaaaaa" stroke-width="1.51"/><path d="M590,1272L471,1283L689,1309Z" fill="#646464" stroke="#646464" stroke-width="1.51"/><path d="M570,1174L590,1272L689,1309Z" fill="#666666" stroke="#666666" stroke-width="1.51"/><path d="M570,1174L689,1309L741,1112Z" fill="#686868" stroke="#686868" stroke-width="1.51"/><path d="M638,-79L689,83L748,-113Z" fill="#d2d2d2" stroke="#d2d2d2" stroke-width="1.51"/><path d="M598,993L697,1020L770,882Z" fill="#828282" stroke="#828282" stroke-width="1.51"/><path d="M698,673L554,830L770,882Z" fill="#929292" stroke="#929292" stroke-width="1.51"/><path d="M534,264L693,380L775,207Z" fill="#c0c0c0" stroke="#c0c0c0" stroke-width="1.51"/><path d="M689,83L534,264L775,207Z" fill="#c6c6c6" stroke="#c6c6c6" stroke-width="1.51"/><path d="M554,830L598,993L770,882Z" fill="#8b8b8b" stroke="#8b8b8b" stroke-width="1.51"/><path d="M542,120L534,264L689,83Z" fill="#cccccc" stroke="#cccccc" stroke-width="1.51"/><path d="M712,-203L638,-79L748,-113Z" fill="#d6d6d6" stroke="#d6d6d6" stroke-width="1.51"/><path d="M697,1020L570,1174L741,1112Z" fill="#737373" stroke="#737373" stroke-width="1.51"/><path d="M536,428L682,537L693,380Z" fill="#b3b3b3" stroke="#b3b3b3" stroke-width="1.51"/><path d="M598,993L570,1174L697,1020Z" fill="#797979" stroke="#797979" stroke-width="1.51"/><path d="M682,537L535,683L698,673Z" fill="#a2a2a2" stroke="#a2a2a2" stroke-width="1.51"/><path d="M535,683L554,830L698,673Z" fill="#9c9c9c" stroke="#9c9c9c" stroke-width="1.51"/><path d="M580,-257L638,-79L712,-203Z" fill="#dbdbdb" stroke="#dbdbdb" stroke-width="1.51"/><path d="M536,428L531,513L682,537Z" fill="#b1b1b1" stroke="#b1b1b1" stroke-width="1.51"/><path d="M531,513L535,683L682,537Z" fill="#a9a9a9" stroke="#a9a9a9" stroke-width="1.51"/><path d="M638,-79L542,120L689,83Z" fill="#d1d1d1" stroke="#d1d1d1" stroke-width="1.51"/><path d="M534,264L536,428L693,380Z" fill="#bebebe" stroke="#bebebe" stroke-width="1.51"/><path d="M94,1264L-18,1302L244,1259Z" fill="#777777" stroke="#777777" stroke-width="1.51"/><path d="M419,-102L542,120L638,-79Z" fill="#d9d9d9" stroke="#d9d9d9" stroke-width="1.51"/><path d="M463,-163L419,-102L638,-79Z" fill="#dfdfdf" stroke="#dfdfdf" stroke-width="1.51"/><path d="M580,-257L463,-163L638,-79Z" fill="#dedede" stroke="#dedede" stroke-width="1.51"/><path d="M531,513L484,532L535,683Z" fill="#adadad" stroke="#adadad" stroke-width="1.51"/><path d="M534,264L459,398L536,428Z" fill="#c1c1c1" stroke="#c1c1c1" stroke-width="1.51"/><path d="M419,-102L429,120L542,120Z" fill="#d8d8d8" stroke="#d8d8d8" stroke-width="1.51"/><path d="M535,683L470,802L554,830Z" fill="#9b9b9b" stroke="#9b9b9b" stroke-width="1.51"/><path d="M570,1174L471,1283L590,1272Z" fill="#6a6a6a" stroke="#6a6a6a" stroke-width="1.51"/><path d="M554,830L396,974L598,993Z" fill="#8d8d8d" stroke="#8d8d8d" stroke-width="1.51"/><path d="M396,1097L570,1174L598,993Z" fill="#7b7b7b" stroke="#7b7b7b" stroke-width="1.51"/><path d="M396,974L396,1097L598,993Z" fill="#858585" stroke="#858585" stroke-width="1.51"/><path d="M276,-256L463,-163L580,-257Z" fill="#e6e6e6" stroke="#e6e6e6" stroke-width="1.51"/><path d="M470,802L396,974L554,830Z" fill="#959595" stroke="#959595" stroke-width="1.51"/><path d="M429,120L534,264L542,120Z" fill="#cfcfcf" stroke="#cfcfcf" stroke-width="1.51"/><path d="M396,1097L471,1283L570,1174Z" fill="#717171" stroke="#717171" stroke-width="1.51"/><path d="M382,274L459,398L534,264Z" fill="#c8c8c8" stroke="#c8c8c8" stroke-width="1.51"/><path d="M429,120L382,274L534,264Z" fill="#cecece" stroke="#cecece" stroke-width="1.51"/><path d="M484,532L384,695L535,683Z" fill="#a9a9a9" stroke="#a9a9a9" stroke-width="1.51"/><path d="M384,695L470,802L535,683Z" fill="#a1a1a1" stroke="#a1a1a1" stroke-width="1.51"/><path d="M484,532L531,513L536,428Z" fill="#b4b4b4" stroke="#b4b4b4" stroke-width="1.51"/><path d="M459,398L484,532L536,428Z" fill="#b9b9b9" stroke="#b9b9b9" stroke-width="1.51"/><path d="M419,-102L312,-31L429,120Z" fill="#dfdfdf" stroke="#dfdfdf" stroke-width="1.51"/><path d="M267,822L396,974L470,802Z" fill="#999999" stroke="#999999" stroke-width="1.51"/><path d="M396,1097L288,1128L471,1283Z" fill="#777777" stroke="#777777" stroke-width="1.51"/><path d="M288,1128L244,1259L471,1283Z" fill="#747474" stroke="#747474" stroke-width="1.51"/><path d="M307,564L384,695L484,532Z" fill="#b0b0b0" stroke="#b0b0b0" stroke-width="1.51"/><path d="M459,398L340,446L484,532Z" fill="#bcbcbc" stroke="#bcbcbc" stroke-width="1.51"/><path d="M340,446L307,564L484,532Z" fill="#b9b9b9" stroke="#b9b9b9" stroke-width="1.51"/><path d="M312,-31L294,90L429,120Z" fill="#dddddd" stroke="#dddddd" stroke-width="1.51"/><path d="M384,695L267,822L470,802Z" fill="#a2a2a2" stroke="#a2a2a2" stroke-width="1.51"/><path d="M382,274L340,446L459,398Z" fill="#c6c6c6" stroke="#c6c6c6" stroke-width="1.51"/><path d="M276,-256L419,-102L463,-163Z" fill="#e7e7e7" stroke="#e7e7e7" stroke-width="1.51"/><path d="M294,90L382,274L429,120Z" fill="#d6d6d6" stroke="#d6d6d6" stroke-width="1.51"/><path d="M294,90L261,272L382,274Z" fill="#d5d5d5" stroke="#d5d5d5" stroke-width="1.51"/><path d="M307,564L288,670L384,695Z" fill="#afafaf" stroke="#afafaf" stroke-width="1.51"/><path d="M244,1001L396,1097L396,974Z" fill="#8a8a8a" stroke="#8a8a8a" stroke-width="1.51"/><path d="M276,-256L312,-31L419,-102Z" fill="#e7e7e7" stroke="#e7e7e7" stroke-width="1.51"/><path d="M261,272L340,446L382,274Z" fill="#cccccc" stroke="#cccccc" stroke-width="1.51"/><path d="M288,670L267,822L384,695Z" fill="#a8a8a8" stroke="#a8a8a8" stroke-width="1.51"/><path d="M244,1001L288,1128L396,1097Z" fill="#858585" stroke="#858585" stroke-width="1.51"/><path d="M267,822L244,1001L396,974Z" fill="#969696" stroke="#969696" stroke-width="1.51"/><path d="M276,-256L164,-6L312,-31Z" fill="#e9e9e9" stroke="#e9e9e9" stroke-width="1.51"/><path d="M95,437L307,564L340,446Z" fill="#c1c1c1" stroke="#c1c1c1" stroke-width="1.51"/><path d="M261,272L95,437L340,446Z" fill="#cbcbcb" stroke="#cbcbcb" stroke-width="1.51"/><path d="M169,983L244,1001L267,822Z" fill="#999999" stroke="#999999" stroke-width="1.51"/><path d="M127,-262L164,-6L276,-256Z" fill="#eeeeee" stroke="#eeeeee" stroke-width="1.51"/><path d="M173,710L267,822L288,670Z" fill="#aaaaaa" stroke="#aaaaaa" stroke-width="1.51"/><path d="M126,218L261,272L294,90Z" fill="#d9d9d9" stroke="#d9d9d9" stroke-width="1.51"/><path d="M112,114L126,218L294,90Z" fill="#dfdfdf" stroke="#dfdfdf" stroke-width="1.51"/><path d="M173,710L288,670L307,564Z" fill="#b1b1b1" stroke="#b1b1b1" stroke-width="1.51"/><path d="M95,437L94,528L307,564Z" fill="#c1c1c1" stroke="#c1c1c1" stroke-width="1.51"/><path d="M164,-6L294,90L312,-31Z" fill="#e3e3e3" stroke="#e3e3e3" stroke-width="1.51"/><path d="M244,1001L165,1092L288,1128Z" fill="#888888" stroke="#888888" stroke-width="1.51"/><path d="M94,528L173,710L307,564Z" fill="#b8b8b8" stroke="#b8b8b8" stroke-width="1.51"/><path d="M119,859L169,983L267,822Z" fill="#9e9e9e" stroke="#9e9e9e" stroke-width="1.51"/><path d="M165,1092L244,1259L288,1128Z" fill="#7d7d7d" stroke="#7d7d7d" stroke-width="1.51"/><path d="M164,-6L112,114L294,90Z" fill="#e3e3e3" stroke="#e3e3e3" stroke-width="1.51"/><path d="M126,218L95,437L261,272Z" fill="#d4d4d4" stroke="#d4d4d4" stroke-width="1.51"/><path d="M165,1092L94,1264L244,1259Z" fill="#7b7b7b" stroke="#7b7b7b" stroke-width="1.51"/><path d="M173,710L119,859L267,822Z" fill="#a6a6a6" stroke="#a6a6a6" stroke-width="1.51"/><path d="M-144,-239L9,-218L127,-262Z" fill="#f7f7f7" stroke="#f7f7f7" stroke-width="1.51"/><path d="M169,983L165,1092L244,1001Z" fill="#8f8f8f" stroke="#8f8f8f" stroke-width="1.51"/><path d="M24,251L95,437L126,218Z" fill="#d7d7d7" stroke="#d7d7d7" stroke-width="1.51"/><path d="M9,-218L-66,-93L164,-6Z" fill="#f1f1f1" stroke="#f1f1f1" stroke-width="1.51"/><path d="M127,-262L9,-218L164,-6Z" fill="#f1f1f1" stroke="#f1f1f1" stroke-width="1.51"/><path d="M-45,1108L94,1264L165,1092Z" fill="#838383" stroke="#838383" stroke-width="1.51"/><path d="M-18,1004L165,1092L169,983Z" fill="#929292" stroke="#929292" stroke-width="1.51"/><path d="M119,859L-18,1004L169,983Z" fill="#9d9d9d" stroke="#9d9d9d" stroke-width="1.51"/><path d="M33,684L119,859L173,710Z" fill="#adadad" stroke="#adadad" stroke-width="1.51"/><path d="M94,528L33,684L173,710Z" fill="#b8b8b8" stroke="#b8b8b8" stroke-width="1.51"/><path d="M-32,85L112,114L164,-6Z" fill="#e7e7e7" stroke="#e7e7e7" stroke-width="1.51"/><path d="M-18,1004L-45,1108L165,1092Z" fill="#8f8f8f" stroke="#8f8f8f" stroke-width="1.51"/><path d="M-66,-93L-32,85L164,-6Z" fill="#ededed" stroke="#ededed" stroke-width="1.51"/><path d="M17,527L33,684L94,528Z" fill="#bfbfbf" stroke="#bfbfbf" stroke-width="1.51"/><path d="M24,251L7,443L95,437Z" fill="#d3d3d3" stroke="#d3d3d3" stroke-width="1.51"/><path d="M33,684L-62,868L119,859Z" fill="#ababab" stroke="#ababab" stroke-width="1.51"/><path d="M-62,868L-18,1004L119,859Z" fill="#a2a2a2" stroke="#a2a2a2" stroke-width="1.51"/><path d="M112,114L24,251L126,218Z" fill="#dfdfdf" stroke="#dfdfdf" stroke-width="1.51"/><path d="M-32,85L24,251L112,114Z" fill="#e3e3e3" stroke="#e3e3e3" stroke-width="1.51"/><path d="M-45,1108L-18,1302L94,1264Z" fill="#7e7e7e" stroke="#7e7e7e" stroke-width="1.51"/><path d="M17,527L94,528L95,437Z" fill="#c6c6c6" stroke="#c6c6c6" stroke-width="1.51"/><path d="M7,443L17,527L95,437Z" fill="#c9c9c9" stroke="#c9c9c9" stroke-width="1.51"/><path d="M-45,1108L-128,1146L-18,1302Z" fill="#838383" stroke="#838383" stroke-width="1.51"/><path d="M-32,85L-160,280L24,251Z" fill="#e2e2e2" stroke="#e2e2e2" stroke-width="1.51"/><path d="M-145,400L7,443L24,251Z" fill="#d6d6d6" stroke="#d6d6d6" stroke-width="1.51"/><path d="M-160,280L-145,400L24,251Z" fill="#dcdcdc" stroke="#dcdcdc" stroke-width="1.51"/><path d="M17,527L-221,667L33,684Z" fill="#bdbdbd" stroke="#bdbdbd" stroke-width="1.51"/><path d="M-221,667L-62,868L33,684Z" fill="#b3b3b3" stroke="#b3b3b3" stroke-width="1.51"/><path d="M-66,-93L-132,-60L-32,85Z" fill="#f0f0f0" stroke="#f0f0f0" stroke-width="1.51"/><path d="M-202,490L-221,667L17,527Z" fill="#c5c5c5" stroke="#c5c5c5" stroke-width="1.51"/><path d="M7,443L-145,400L17,527Z" fill="#cdcdcd" stroke="#cdcdcd" stroke-width="1.51"/><path d="M-145,400L-202,490L17,527Z" fill="#cdcdcd" stroke="#cdcdcd" stroke-width="1.51"/><path d="M-128,1146L-141,1315L-18,1302Z" fill="#7e7e7e" stroke="#7e7e7e" stroke-width="1.51"/><path d="M-144,-239L-66,-93L9,-218Z" fill="#f7f7f7" stroke="#f7f7f7" stroke-width="1.51"/><path d="M-221,667L-172,883L-62,868Z" fill="#afafaf" stroke="#afafaf" stroke-width="1.51"/><path d="M-132,-60L-189,54L-32,85Z" fill="#eeeeee" stroke="#eeeeee" stroke-width="1.51"/><path d="M-189,54L-160,280L-32,85Z" fill="#e8e8e8" stroke="#e8e8e8" stroke-width="1.51"/><path d="M-129,1014L-45,1108L-18,1004Z" fill="#959595" stroke="#959595" stroke-width="1.51"/><path d="M-62,868L-129,1014L-18,1004Z" fill="#9f9f9f" stroke="#9f9f9f" stroke-width="1.51"/><path d="M-172,883L-129,1014L-62,868Z" fill="#a4a4a4" stroke="#a4a4a4" stroke-width="1.51"/><path d="M-129,1014L-128,1146L-45,1108Z" fill="#909090" stroke="#909090" stroke-width="1.51"/><path d="M-144,-239L-132,-60L-66,-93Z" fill="#f6f6f6" stroke="#f6f6f6" stroke-width="1.51"/><path d="M-144,-239L-189,54L-132,-60Z" fill="#f5f5f5" stroke="#f5f5f5" stroke-width="1.51"/><path d="M-129,1014L-172,883L-128,1146Z" fill="#9a9a9a" stroke="#9a9a9a" stroke-width="1.51"/><path d="M-172,883L-141,1315L-128,1146Z" fill="#8d8d8d" stroke="#8d8d8d" stroke-width="1.51"/><path d="M-160,280L-202,490L-145,400Z" fill="#d6d6d6" stroke="#d6d6d6" stroke-width="1.51"/><path d="M-172,883L-221,667L-141,1315Z" fill="#a2a2a2" stroke="#a2a2a2" stroke-width="1.51"/><path d="M-189,54L-202,490L-160,280Z" fill="#e0e0e0" stroke="#e0e0e0" stroke-width="1.51"/><path d="M-221,667L-202,490L-189,54Z" fill="#d6d6d6" stroke="#d6d6d6" stroke-width="1.51"/></svg>